# xmcd
#
# Track frame offsets:
#	150
#	2058
#	28248
#	45959
#	63300
#	79158
#	94301
#	113852
#	131150
#	170035
#	193112
#	214382
#	228633
#	245779
#	266538
#
# Disc length: 3781 seconds
#
# Revision: 0
# Processed by: cddbd v1.4PL0 Copyright (c) Steve Scherf et al.
# Submitted via: dBpowerAMP V4.0
#
DISCID=dd0ec30f
DTITLE=Various Artist - Blues from Ain't Nothin' But Blues Bar, Vol 2
DYEAR=1900
DGENRE=
TTITLE0=Late Big Lucky Carter - Radio Advert for Blues Bar
TTITLE1=Freeze - Deja Vu
TTITLE2=Paul Garner and Blueprint - Warm Night Breeze
TTITLE3=Barcodes - Keep Your Distance
TTITLE4=Daniel Smith Band - Southside Boogie
TTITLE5=Bob Hokum Band - Big Road Blues
TTITLE6=West Weston's Bluesonics - It's You That Wears The Ring
TTITLE7=Drew Barron and Broomdusters - Nawlins Callin'
TTITLE8=Ian Siegal Band - Taildragger
TTITLE9=Marques Brothers - Gypsy Woman
TTITLE10=King David's Trio Royale - Things I Do For You
TTITLE11=Fatnin' Frogs Blues Band - Walkin' To My Baby
TTITLE12=Pete G and Magni Tones - Fast Boogie
TTITLE13=Jimmy C and Bluesdragons - Crossroads Boogie
TTITLE14=Big Pete Pearson - One More Drink
EXTD=
EXTT0=
EXTT1=
EXTT2=
EXTT3=
EXTT4=
EXTT5=
EXTT6=
EXTT7=
EXTT8=
EXTT9=
EXTT10=
EXTT11=
EXTT12=
EXTT13=
EXTT14=
PLAYORDER=
